<svg xmlns="http://www.w3.org/2000/svg" xmlns:xlink="http://www.w3.org/1999/xlink" width="500" zoomAndPan="magnify" viewBox="0 0 375 374.999991" height="500" preserveAspectRatio="xMidYMid meet" version="1.0"><defs><clipPath id="8bc9571f14"><path d="M 38 26 L 333 26 L 333 347 L 38 347 Z M 38 26 " clip-rule="nonzero"/></clipPath><clipPath id="9135e7067c"><path d="M -45.476562 117.246094 L 294.421875 -28.304688 L 416.351562 256.433594 L 76.457031 401.984375 Z M -45.476562 117.246094 " clip-rule="nonzero"/></clipPath><clipPath id="91617a8bdf"><path d="M -45.476562 117.246094 L 294.421875 -28.304688 L 416.351562 256.433594 L 76.457031 401.984375 Z M -45.476562 117.246094 " clip-rule="nonzero"/></clipPath><clipPath id="703aba63a5"><path d="M 122 117 L 248 117 L 248 256 L 122 256 Z M 122 117 " clip-rule="nonzero"/></clipPath><clipPath id="03bf5440aa"><path d="M -45.476562 117.246094 L 294.421875 -28.304688 L 416.351562 256.433594 L 76.457031 401.984375 Z M -45.476562 117.246094 " clip-rule="nonzero"/></clipPath><clipPath id="9681458c2f"><path d="M -45.476562 117.246094 L 294.421875 -28.304688 L 416.351562 256.433594 L 76.457031 401.984375 Z M -45.476562 117.246094 " clip-rule="nonzero"/></clipPath><clipPath id="4a159e60c3"><path d="M 52 57 L 161 57 L 161 220 L 52 220 Z M 52 57 " clip-rule="nonzero"/></clipPath><clipPath id="bbd046c9db"><path d="M -45.476562 117.246094 L 294.421875 -28.304688 L 416.351562 256.433594 L 76.457031 401.984375 Z M -45.476562 117.246094 " clip-rule="nonzero"/></clipPath><clipPath id="30b1c6686c"><path d="M -45.476562 117.246094 L 294.421875 -28.304688 L 416.351562 256.433594 L 76.457031 401.984375 Z M -45.476562 117.246094 " clip-rule="nonzero"/></clipPath><clipPath id="e8445f8aee"><path d="M 134 40 L 197 40 L 197 90 L 134 90 Z M 134 40 " clip-rule="nonzero"/></clipPath><clipPath id="6a84a63e45"><path d="M -45.476562 117.246094 L 294.421875 -28.304688 L 416.351562 256.433594 L 76.457031 401.984375 Z M -45.476562 117.246094 " clip-rule="nonzero"/></clipPath><clipPath id="2cd2030cde"><path d="M -45.476562 117.246094 L 294.421875 -28.304688 L 416.351562 256.433594 L 76.457031 401.984375 Z M -45.476562 117.246094 " clip-rule="nonzero"/></clipPath><clipPath id="152b475ed7"><path d="M 209 153 L 319 153 L 319 317 L 209 317 Z M 209 153 " clip-rule="nonzero"/></clipPath><clipPath id="a8e5ae40e5"><path d="M -45.476562 117.246094 L 294.421875 -28.304688 L 416.351562 256.433594 L 76.457031 401.984375 Z M -45.476562 117.246094 " clip-rule="nonzero"/></clipPath><clipPath id="111a8747f5"><path d="M -45.476562 117.246094 L 294.421875 -28.304688 L 416.351562 256.433594 L 76.457031 401.984375 Z M -45.476562 117.246094 " clip-rule="nonzero"/></clipPath><clipPath id="a91d959909"><path d="M 174 283 L 237 283 L 237 334 L 174 334 Z M 174 283 " clip-rule="nonzero"/></clipPath><clipPath id="4657d8564d"><path d="M -45.476562 117.246094 L 294.421875 -28.304688 L 416.351562 256.433594 L 76.457031 401.984375 Z M -45.476562 117.246094 " clip-rule="nonzero"/></clipPath><clipPath id="218ead5965"><path d="M -45.476562 117.246094 L 294.421875 -28.304688 L 416.351562 256.433594 L 76.457031 401.984375 Z M -45.476562 117.246094 " clip-rule="nonzero"/></clipPath><clipPath id="1b6ea4e261"><path d="M 171.699219 308.925781 L 231.238281 283.429688 L 250.316406 327.980469 L 190.777344 353.476562 Z M 171.699219 308.925781 " clip-rule="nonzero"/></clipPath><clipPath id="44821b4a5f"><path d="M 171.699219 308.925781 L 231.238281 283.429688 L 250.15625 327.605469 L 190.617188 353.101562 Z M 171.699219 308.925781 " clip-rule="nonzero"/></clipPath></defs><g clip-path="url(#8bc9571f14)"><g clip-path="url(#9135e7067c)"><g clip-path="url(#91617a8bdf)"><path fill="#b98950" d="M 236.691406 42.171875 L 183.699219 103.003906 C 170.824219 117.785156 169.496094 138.511719 178.628906 154.65625 L 259.386719 61.949219 C 264.78125 55.757812 274.207031 55.109375 280.402344 60.507812 L 297.558594 75.457031 C 303.746094 80.851562 304.394531 90.285156 299.003906 96.476562 L 218.246094 189.179688 C 235.484375 196.023438 255.832031 191.867188 268.707031 177.089844 L 321.699219 116.257812 C 338.023438 97.519531 336.066406 69.09375 317.328125 52.761719 L 300.171875 37.8125 C 281.433594 21.484375 253.015625 23.4375 236.691406 42.171875 Z M 90.476562 313.175781 L 73.316406 298.222656 C 67.128906 292.828125 66.480469 283.398438 71.875 277.203125 L 152.632812 184.5 C 135.394531 177.660156 115.046875 181.816406 102.171875 196.59375 L 49.179688 257.425781 C 32.855469 276.164062 34.8125 304.589844 53.550781 320.917969 L 70.707031 335.871094 C 89.445312 352.199219 117.863281 350.246094 134.1875 331.511719 L 187.179688 270.675781 C 200.054688 255.898438 201.382812 235.167969 192.25 219.023438 L 111.492188 311.726562 C 106.09375 317.921875 96.664062 318.570312 90.476562 313.175781 " fill-opacity="1" fill-rule="nonzero"/></g></g></g><g clip-path="url(#703aba63a5)"><g clip-path="url(#03bf5440aa)"><g clip-path="url(#9681458c2f)"><path fill="#b98950" d="M 243.679688 126.125 C 246.195312 128.316406 247.734375 131.414062 247.964844 134.742188 C 248.195312 138.066406 247.089844 141.347656 244.902344 143.859375 L 151.011719 251.640625 C 148.824219 254.15625 145.726562 255.695312 142.398438 255.925781 C 139.074219 256.152344 135.792969 255.050781 133.28125 252.859375 L 127.195312 247.554688 C 121.964844 242.992188 121.414062 235.054688 125.976562 229.820312 L 219.867188 122.042969 C 224.425781 116.808594 232.363281 116.261719 237.597656 120.824219 L 243.679688 126.125 " fill-opacity="1" fill-rule="nonzero"/></g></g></g><g clip-path="url(#4a159e60c3)"><g clip-path="url(#bbd046c9db)"><g clip-path="url(#30b1c6686c)"><path fill="#b98950" d="M 64.0625 218.3125 C 63.414062 219.058594 62.527344 219.613281 61.488281 219.84375 C 58.890625 220.429688 56.308594 218.800781 55.714844 216.195312 C 46.390625 174.828125 57.351562 131.144531 85.046875 99.355469 C 103.5 78.171875 127.695312 63.628906 155.007812 57.292969 C 157.605469 56.691406 160.199219 58.308594 160.800781 60.902344 C 161.398438 63.488281 159.765625 66.085938 157.191406 66.695312 C 131.863281 72.566406 109.433594 86.054688 92.324219 105.695312 C 66.640625 135.175781 56.476562 175.695312 65.136719 214.078125 C 65.480469 215.636719 65.039062 217.191406 64.0625 218.3125 " fill-opacity="1" fill-rule="nonzero"/></g></g></g><g clip-path="url(#e8445f8aee)"><g clip-path="url(#6a84a63e45)"><g clip-path="url(#2cd2030cde)"><path fill="#b98950" d="M 134.863281 40.019531 L 147.902344 63.882812 L 139.785156 89.832031 L 196.347656 59.105469 L 134.863281 40.019531 " fill-opacity="1" fill-rule="nonzero"/></g></g></g><g clip-path="url(#152b475ed7)"><g clip-path="url(#a8e5ae40e5)"><g clip-path="url(#111a8747f5)"><path fill="#b98950" d="M 285.828125 274.332031 C 267.378906 295.507812 243.195312 310.050781 215.875 316.394531 C 213.277344 316.996094 210.683594 315.378906 210.082031 312.785156 C 209.476562 310.191406 211.089844 307.609375 213.691406 306.988281 C 239.019531 301.109375 261.445312 287.621094 278.550781 267.988281 C 304.230469 238.507812 314.394531 197.988281 305.746094 159.605469 C 305.15625 157 306.796875 154.425781 309.394531 153.839844 C 311.992188 153.253906 314.582031 154.890625 315.167969 157.492188 C 324.488281 198.859375 313.523438 242.539062 285.828125 274.332031 " fill-opacity="1" fill-rule="nonzero"/></g></g></g><g clip-path="url(#a91d959909)"><g clip-path="url(#4657d8564d)"><g clip-path="url(#218ead5965)"><g clip-path="url(#1b6ea4e261)"><g clip-path="url(#44821b4a5f)"><path fill="#b98950" d="M 236.015625 333.660156 L 222.976562 309.800781 L 231.09375 283.851562 L 174.53125 314.578125 L 236.015625 333.660156 " fill-opacity="1" fill-rule="nonzero"/></g></g></g></g></g></svg>