<svg xmlns="http://www.w3.org/2000/svg" xmlns:xlink="http://www.w3.org/1999/xlink" width="500" zoomAndPan="magnify" viewBox="0 0 375 374.999991" height="500" preserveAspectRatio="xMidYMid meet" version="1.0"><defs><g/><clipPath id="293db092ed"><path d="M 19 112 L 134 112 L 134 237 L 19 237 Z M 19 112 " clip-rule="nonzero"/></clipPath><clipPath id="8a6f5768ca"><path d="M -13.5 147.277344 L 118.875 90.59375 L 166.40625 201.59375 L 34.035156 258.277344 Z M -13.5 147.277344 " clip-rule="nonzero"/></clipPath><clipPath id="0ca46133d6"><path d="M -13.5 147.277344 L 118.875 90.59375 L 166.40625 201.59375 L 34.035156 258.277344 Z M -13.5 147.277344 " clip-rule="nonzero"/></clipPath><clipPath id="9b6036b72a"><path d="M 52 147 L 101 147 L 101 202 L 52 202 Z M 52 147 " clip-rule="nonzero"/></clipPath><clipPath id="945eac8a52"><path d="M -13.5 147.277344 L 118.875 90.59375 L 166.40625 201.59375 L 34.035156 258.277344 Z M -13.5 147.277344 " clip-rule="nonzero"/></clipPath><clipPath id="71bc1d64c8"><path d="M -13.5 147.277344 L 118.875 90.59375 L 166.40625 201.59375 L 34.035156 258.277344 Z M -13.5 147.277344 " clip-rule="nonzero"/></clipPath><clipPath id="77fad099bf"><path d="M 24 123 L 67 123 L 67 188 L 24 188 Z M 24 123 " clip-rule="nonzero"/></clipPath><clipPath id="6186eb111c"><path d="M -13.5 147.277344 L 118.875 90.59375 L 166.40625 201.59375 L 34.035156 258.277344 Z M -13.5 147.277344 " clip-rule="nonzero"/></clipPath><clipPath id="2513170519"><path d="M -13.5 147.277344 L 118.875 90.59375 L 166.40625 201.59375 L 34.035156 258.277344 Z M -13.5 147.277344 " clip-rule="nonzero"/></clipPath><clipPath id="179acdc499"><path d="M 56 117 L 81 117 L 81 137 L 56 137 Z M 56 117 " clip-rule="nonzero"/></clipPath><clipPath id="a320d8b6ed"><path d="M -13.5 147.277344 L 118.875 90.59375 L 166.40625 201.59375 L 34.035156 258.277344 Z M -13.5 147.277344 " clip-rule="nonzero"/></clipPath><clipPath id="0494b8ed26"><path d="M -13.5 147.277344 L 118.875 90.59375 L 166.40625 201.59375 L 34.035156 258.277344 Z M -13.5 147.277344 " clip-rule="nonzero"/></clipPath><clipPath id="6f8019fe2f"><path d="M 86 161 L 129 161 L 129 225 L 86 225 Z M 86 161 " clip-rule="nonzero"/></clipPath><clipPath id="c127c76c69"><path d="M -13.5 147.277344 L 118.875 90.59375 L 166.40625 201.59375 L 34.035156 258.277344 Z M -13.5 147.277344 " clip-rule="nonzero"/></clipPath><clipPath id="d62b720c5a"><path d="M -13.5 147.277344 L 118.875 90.59375 L 166.40625 201.59375 L 34.035156 258.277344 Z M -13.5 147.277344 " clip-rule="nonzero"/></clipPath><clipPath id="c0c447e49a"><path d="M 72 212 L 97 212 L 97 232 L 72 232 Z M 72 212 " clip-rule="nonzero"/></clipPath><clipPath id="b56fe4337f"><path d="M -13.5 147.277344 L 118.875 90.59375 L 166.40625 201.59375 L 34.035156 258.277344 Z M -13.5 147.277344 " clip-rule="nonzero"/></clipPath><clipPath id="01c86203f2"><path d="M -13.5 147.277344 L 118.875 90.59375 L 166.40625 201.59375 L 34.035156 258.277344 Z M -13.5 147.277344 " clip-rule="nonzero"/></clipPath><clipPath id="1ab19547ef"><path d="M 71.121094 222.019531 L 94.308594 212.089844 L 101.746094 229.457031 L 78.558594 239.386719 Z M 71.121094 222.019531 " clip-rule="nonzero"/></clipPath><clipPath id="058bb15240"><path d="M 71.121094 222.019531 L 94.308594 212.089844 L 101.679688 229.3125 L 78.496094 239.238281 Z M 71.121094 222.019531 " clip-rule="nonzero"/></clipPath></defs><g clip-path="url(#293db092ed)"><g clip-path="url(#8a6f5768ca)"><g clip-path="url(#0ca46133d6)"><path fill="#b98950" d="M 96.398438 118.058594 L 75.765625 141.757812 C 70.753906 147.519531 70.238281 155.597656 73.796875 161.890625 L 105.238281 125.769531 C 107.339844 123.355469 111.011719 123.105469 113.421875 125.210938 L 120.109375 131.039062 C 122.519531 133.144531 122.773438 136.820312 120.671875 139.230469 L 89.230469 175.351562 C 95.949219 178.023438 103.871094 176.40625 108.886719 170.648438 L 129.515625 146.945312 C 135.871094 139.644531 135.105469 128.5625 127.804688 122.195312 L 121.121094 116.367188 C 113.820312 110 102.75 110.757812 96.398438 118.058594 Z M 39.484375 223.664062 L 32.800781 217.835938 C 30.390625 215.730469 30.132812 212.054688 32.234375 209.640625 L 63.675781 173.519531 C 56.960938 170.851562 49.035156 172.46875 44.023438 178.226562 L 23.394531 201.929688 C 17.039062 209.230469 17.804688 220.308594 25.105469 226.675781 L 31.789062 232.507812 C 39.089844 238.875 50.160156 238.117188 56.511719 230.816406 L 77.144531 207.113281 C 82.15625 201.355469 82.671875 193.273438 79.113281 186.980469 L 47.671875 223.101562 C 45.570312 225.515625 41.898438 225.765625 39.484375 223.664062 " fill-opacity="1" fill-rule="nonzero"/></g></g></g><g clip-path="url(#9b6036b72a)"><g clip-path="url(#945eac8a52)"><g clip-path="url(#71bc1d64c8)"><path fill="#b98950" d="M 99.132812 150.78125 C 100.109375 151.632812 100.710938 152.84375 100.800781 154.136719 C 100.890625 155.433594 100.460938 156.714844 99.609375 157.691406 L 63.054688 199.6875 C 62.203125 200.667969 60.996094 201.269531 59.699219 201.355469 C 58.40625 201.445312 57.128906 201.015625 56.148438 200.160156 L 53.777344 198.09375 C 51.738281 196.3125 51.523438 193.21875 53.300781 191.179688 L 89.855469 149.183594 C 91.628906 147.144531 94.722656 146.933594 96.761719 148.710938 L 99.132812 150.78125 " fill-opacity="1" fill-rule="nonzero"/></g></g></g><g clip-path="url(#77fad099bf)"><g clip-path="url(#6186eb111c)"><g clip-path="url(#2513170519)"><path fill="#b98950" d="M 29.183594 186.6875 C 28.929688 186.976562 28.585938 187.191406 28.183594 187.28125 C 27.167969 187.511719 26.164062 186.875 25.933594 185.859375 C 22.292969 169.734375 26.558594 152.710938 37.339844 140.324219 C 44.523438 132.070312 53.945312 126.402344 64.582031 123.9375 C 65.59375 123.703125 66.605469 124.335938 66.839844 125.347656 C 67.074219 126.355469 66.4375 127.367188 65.433594 127.605469 C 55.570312 129.886719 46.835938 135.140625 40.175781 142.796875 C 30.175781 154.28125 26.222656 170.074219 29.601562 185.035156 C 29.734375 185.644531 29.5625 186.25 29.183594 186.6875 " fill-opacity="1" fill-rule="nonzero"/></g></g></g><g clip-path="url(#179acdc499)"><g clip-path="url(#a320d8b6ed)"><g clip-path="url(#0494b8ed26)"><path fill="#b98950" d="M 56.734375 117.203125 L 61.816406 126.503906 L 58.660156 136.617188 L 80.683594 124.652344 L 56.734375 117.203125 " fill-opacity="1" fill-rule="nonzero"/></g></g></g><g clip-path="url(#6f8019fe2f)"><g clip-path="url(#c127c76c69)"><g clip-path="url(#d62b720c5a)"><path fill="#b98950" d="M 115.566406 208.550781 C 108.386719 216.804688 98.96875 222.46875 88.328125 224.9375 C 87.316406 225.171875 86.304688 224.539062 86.070312 223.527344 C 85.835938 222.519531 86.460938 221.511719 87.476562 221.269531 C 97.339844 218.984375 106.074219 213.730469 112.734375 206.078125 C 122.730469 194.59375 126.683594 178.800781 123.308594 163.839844 C 123.078125 162.820312 123.71875 161.820312 124.730469 161.59375 C 125.742188 161.363281 126.75 162 126.980469 163.015625 C 130.617188 179.140625 126.351562 196.164062 115.566406 208.550781 " fill-opacity="1" fill-rule="nonzero"/></g></g></g><g clip-path="url(#c0c447e49a)"><g clip-path="url(#b56fe4337f)"><g clip-path="url(#01c86203f2)"><g clip-path="url(#1ab19547ef)"><g clip-path="url(#058bb15240)"><path fill="#b98950" d="M 96.175781 231.667969 L 91.09375 222.367188 L 94.25 212.253906 L 72.222656 224.222656 L 96.175781 231.667969 " fill-opacity="1" fill-rule="nonzero"/></g></g></g></g></g><g fill="#b98950" fill-opacity="1"><g transform="translate(148.095801, 186.352469)"><g><path d="M 34.875 -13.53125 C 34.875 -9.125 33.289062 -5.65625 30.125 -3.125 C 26.957031 -0.59375 22.554688 0.671875 16.921875 0.671875 C 11.722656 0.671875 7.125 -0.304688 3.125 -2.265625 L 3.125 -11.859375 C 6.414062 -10.390625 9.195312 -9.351562 11.46875 -8.75 C 13.75 -8.15625 15.832031 -7.859375 17.71875 -7.859375 C 19.988281 -7.859375 21.726562 -8.289062 22.9375 -9.15625 C 24.144531 -10.019531 24.75 -11.3125 24.75 -13.03125 C 24.75 -13.976562 24.484375 -14.820312 23.953125 -15.5625 C 23.421875 -16.3125 22.632812 -17.03125 21.59375 -17.71875 C 20.5625 -18.40625 18.460938 -19.503906 15.296875 -21.015625 C 12.316406 -22.410156 10.082031 -23.753906 8.59375 -25.046875 C 7.101562 -26.335938 5.914062 -27.835938 5.03125 -29.546875 C 4.144531 -31.253906 3.703125 -33.253906 3.703125 -35.546875 C 3.703125 -39.847656 5.160156 -43.234375 8.078125 -45.703125 C 10.992188 -48.171875 15.03125 -49.40625 20.1875 -49.40625 C 22.71875 -49.40625 25.128906 -49.101562 27.421875 -48.5 C 29.722656 -47.894531 32.128906 -47.050781 34.640625 -45.96875 L 31.3125 -37.9375 C 28.71875 -39 26.566406 -39.738281 24.859375 -40.15625 C 23.160156 -40.582031 21.492188 -40.796875 19.859375 -40.796875 C 17.898438 -40.796875 16.398438 -40.34375 15.359375 -39.4375 C 14.316406 -38.53125 13.796875 -37.34375 13.796875 -35.875 C 13.796875 -34.96875 14.003906 -34.175781 14.421875 -33.5 C 14.847656 -32.820312 15.519531 -32.164062 16.4375 -31.53125 C 17.363281 -30.894531 19.546875 -29.753906 22.984375 -28.109375 C 27.535156 -25.929688 30.65625 -23.75 32.34375 -21.5625 C 34.03125 -19.375 34.875 -16.695312 34.875 -13.53125 Z M 34.875 -13.53125 "/></g></g></g><g fill="#b98950" fill-opacity="1"><g transform="translate(185.661656, 186.352469)"><g><path d="M 39.703125 0 L 29.546875 0 L 29.546875 -21.75 C 29.546875 -27.125 27.546875 -29.8125 23.546875 -29.8125 C 20.703125 -29.8125 18.644531 -28.84375 17.375 -26.90625 C 16.113281 -24.976562 15.484375 -21.847656 15.484375 -17.515625 L 15.484375 0 L 5.328125 0 L 5.328125 -51.828125 L 15.484375 -51.828125 L 15.484375 -41.265625 C 15.484375 -40.441406 15.40625 -38.507812 15.25 -35.46875 L 15.015625 -32.484375 L 15.5625 -32.484375 C 17.820312 -36.117188 21.414062 -37.9375 26.34375 -37.9375 C 30.71875 -37.9375 34.035156 -36.757812 36.296875 -34.40625 C 38.566406 -32.050781 39.703125 -28.675781 39.703125 -24.28125 Z M 39.703125 0 "/></g></g></g><g fill="#b98950" fill-opacity="1"><g transform="translate(230.487579, 186.352469)"><g><path d="M 21.015625 -7.421875 C 22.796875 -7.421875 24.929688 -7.8125 27.421875 -8.59375 L 27.421875 -1.03125 C 24.878906 0.101562 21.769531 0.671875 18.09375 0.671875 C 14.019531 0.671875 11.054688 -0.351562 9.203125 -2.40625 C 7.347656 -4.46875 6.421875 -7.550781 6.421875 -11.65625 L 6.421875 -29.609375 L 1.5625 -29.609375 L 1.5625 -33.90625 L 7.15625 -37.3125 L 10.09375 -45.171875 L 16.59375 -45.171875 L 16.59375 -37.234375 L 27.015625 -37.234375 L 27.015625 -29.609375 L 16.59375 -29.609375 L 16.59375 -11.65625 C 16.59375 -10.21875 16.992188 -9.148438 17.796875 -8.453125 C 18.609375 -7.765625 19.679688 -7.421875 21.015625 -7.421875 Z M 21.015625 -7.421875 "/></g></g></g><g fill="#b98950" fill-opacity="1"><g transform="translate(260.094015, 186.352469)"><g><path d="M 3.890625 -4.765625 C 3.890625 -6.628906 4.390625 -8.035156 5.390625 -8.984375 C 6.390625 -9.941406 7.847656 -10.421875 9.765625 -10.421875 C 11.609375 -10.421875 13.035156 -9.929688 14.046875 -8.953125 C 15.054688 -7.984375 15.5625 -6.585938 15.5625 -4.765625 C 15.5625 -3.003906 15.046875 -1.617188 14.015625 -0.609375 C 12.992188 0.398438 11.578125 0.90625 9.765625 0.90625 C 7.898438 0.90625 6.453125 0.410156 5.421875 -0.578125 C 4.398438 -1.566406 3.890625 -2.960938 3.890625 -4.765625 Z M 3.890625 -4.765625 "/></g></g></g><g fill="#b98950" fill-opacity="1"><g transform="translate(279.543004, 186.352469)"><g><path d="M 6.125 0 L 6.125 -48.703125 L 16.453125 -48.703125 L 16.453125 0 Z M 6.125 0 "/></g></g></g><g fill="#b98950" fill-opacity="1"><g transform="translate(302.122481, 186.352469)"><g><path d="M 24.921875 0 L 14.59375 0 L 14.59375 -40.109375 L 1.359375 -40.109375 L 1.359375 -48.703125 L 38.140625 -48.703125 L 38.140625 -40.109375 L 24.921875 -40.109375 Z M 24.921875 0 "/></g></g></g><g fill="#000000" fill-opacity="1"><g transform="translate(151.618499, 213.856406)"><g><path d="M 8.703125 -3.375 C 8.703125 -2.28125 8.304688 -1.414062 7.515625 -0.78125 C 6.734375 -0.144531 5.632812 0.171875 4.21875 0.171875 C 2.925781 0.171875 1.78125 -0.0703125 0.78125 -0.5625 L 0.78125 -2.953125 C 1.601562 -2.585938 2.296875 -2.332031 2.859375 -2.1875 C 3.429688 -2.039062 3.953125 -1.96875 4.421875 -1.96875 C 4.984375 -1.96875 5.414062 -2.070312 5.71875 -2.28125 C 6.019531 -2.5 6.171875 -2.820312 6.171875 -3.25 C 6.171875 -3.488281 6.101562 -3.703125 5.96875 -3.890625 C 5.84375 -4.078125 5.648438 -4.253906 5.390625 -4.421875 C 5.128906 -4.597656 4.601562 -4.875 3.8125 -5.25 C 3.070312 -5.59375 2.515625 -5.925781 2.140625 -6.25 C 1.773438 -6.570312 1.476562 -6.945312 1.25 -7.375 C 1.03125 -7.800781 0.921875 -8.300781 0.921875 -8.875 C 0.921875 -9.945312 1.285156 -10.789062 2.015625 -11.40625 C 2.742188 -12.019531 3.753906 -12.328125 5.046875 -12.328125 C 5.671875 -12.328125 6.269531 -12.253906 6.84375 -12.109375 C 7.414062 -11.960938 8.019531 -11.75 8.65625 -11.46875 L 7.8125 -9.46875 C 7.164062 -9.738281 6.628906 -9.925781 6.203125 -10.03125 C 5.785156 -10.132812 5.367188 -10.1875 4.953125 -10.1875 C 4.460938 -10.1875 4.085938 -10.070312 3.828125 -9.84375 C 3.566406 -9.613281 3.4375 -9.316406 3.4375 -8.953125 C 3.4375 -8.722656 3.488281 -8.523438 3.59375 -8.359375 C 3.707031 -8.191406 3.878906 -8.03125 4.109375 -7.875 C 4.335938 -7.71875 4.878906 -7.429688 5.734375 -7.015625 C 6.867188 -6.472656 7.644531 -5.925781 8.0625 -5.375 C 8.488281 -4.832031 8.703125 -4.164062 8.703125 -3.375 Z M 8.703125 -3.375 "/></g></g></g><g fill="#000000" fill-opacity="1"><g transform="translate(160.993403, 213.856406)"><g><path d="M 11.5 0 L 8.921875 0 L 8.921875 -5.25 L 4.109375 -5.25 L 4.109375 0 L 1.53125 0 L 1.53125 -12.15625 L 4.109375 -12.15625 L 4.109375 -7.390625 L 8.921875 -7.390625 L 8.921875 -12.15625 L 11.5 -12.15625 Z M 11.5 0 "/></g></g></g><g fill="#000000" fill-opacity="1"><g transform="translate(174.016873, 213.856406)"><g><path d="M 12.5625 -6.09375 C 12.5625 -4.082031 12.0625 -2.535156 11.0625 -1.453125 C 10.070312 -0.367188 8.644531 0.171875 6.78125 0.171875 C 4.914062 0.171875 3.484375 -0.367188 2.484375 -1.453125 C 1.484375 -2.535156 0.984375 -4.085938 0.984375 -6.109375 C 0.984375 -8.128906 1.484375 -9.671875 2.484375 -10.734375 C 3.484375 -11.804688 4.921875 -12.34375 6.796875 -12.34375 C 8.660156 -12.34375 10.085938 -11.804688 11.078125 -10.734375 C 12.066406 -9.660156 12.5625 -8.113281 12.5625 -6.09375 Z M 3.6875 -6.09375 C 3.6875 -4.738281 3.941406 -3.71875 4.453125 -3.03125 C 4.972656 -2.34375 5.75 -2 6.78125 -2 C 8.832031 -2 9.859375 -3.363281 9.859375 -6.09375 C 9.859375 -8.832031 8.835938 -10.203125 6.796875 -10.203125 C 5.765625 -10.203125 4.988281 -9.859375 4.46875 -9.171875 C 3.945312 -8.484375 3.6875 -7.457031 3.6875 -6.09375 Z M 3.6875 -6.09375 "/></g></g></g><g fill="#000000" fill-opacity="1"><g transform="translate(187.563941, 213.856406)"><g><path d="M 4.109375 -6.765625 L 4.9375 -6.765625 C 5.75 -6.765625 6.347656 -6.898438 6.734375 -7.171875 C 7.128906 -7.441406 7.328125 -7.867188 7.328125 -8.453125 C 7.328125 -9.023438 7.128906 -9.429688 6.734375 -9.671875 C 6.335938 -9.921875 5.722656 -10.046875 4.890625 -10.046875 L 4.109375 -10.046875 Z M 4.109375 -4.671875 L 4.109375 0 L 1.53125 0 L 1.53125 -12.15625 L 5.078125 -12.15625 C 6.722656 -12.15625 7.941406 -11.851562 8.734375 -11.25 C 9.523438 -10.65625 9.921875 -9.742188 9.921875 -8.515625 C 9.921875 -7.796875 9.722656 -7.15625 9.328125 -6.59375 C 8.941406 -6.039062 8.390625 -5.609375 7.671875 -5.296875 C 9.492188 -2.566406 10.6875 -0.800781 11.25 0 L 8.375 0 L 5.484375 -4.671875 Z M 4.109375 -4.671875 "/></g></g></g><g fill="#000000" fill-opacity="1"><g transform="translate(198.800527, 213.856406)"><g><path d="M 6.21875 0 L 3.640625 0 L 3.640625 -10.015625 L 0.34375 -10.015625 L 0.34375 -12.15625 L 9.515625 -12.15625 L 9.515625 -10.015625 L 6.21875 -10.015625 Z M 6.21875 0 "/></g></g></g><g fill="#000000" fill-opacity="1"><g transform="translate(208.657473, 213.856406)"><g/></g></g><g fill="#000000" fill-opacity="1"><g transform="translate(213.078971, 213.856406)"><g><path d="M 5.3125 -7.15625 L 7.84375 -12.15625 L 10.625 -12.15625 L 6.59375 -4.734375 L 6.59375 0 L 4.03125 0 L 4.03125 -4.65625 L 0 -12.15625 L 2.796875 -12.15625 Z M 5.3125 -7.15625 "/></g></g></g><g fill="#000000" fill-opacity="1"><g transform="translate(223.700537, 213.856406)"><g><path d="M 12.5625 -6.09375 C 12.5625 -4.082031 12.0625 -2.535156 11.0625 -1.453125 C 10.070312 -0.367188 8.644531 0.171875 6.78125 0.171875 C 4.914062 0.171875 3.484375 -0.367188 2.484375 -1.453125 C 1.484375 -2.535156 0.984375 -4.085938 0.984375 -6.109375 C 0.984375 -8.128906 1.484375 -9.671875 2.484375 -10.734375 C 3.484375 -11.804688 4.921875 -12.34375 6.796875 -12.34375 C 8.660156 -12.34375 10.085938 -11.804688 11.078125 -10.734375 C 12.066406 -9.660156 12.5625 -8.113281 12.5625 -6.09375 Z M 3.6875 -6.09375 C 3.6875 -4.738281 3.941406 -3.71875 4.453125 -3.03125 C 4.972656 -2.34375 5.75 -2 6.78125 -2 C 8.832031 -2 9.859375 -3.363281 9.859375 -6.09375 C 9.859375 -8.832031 8.835938 -10.203125 6.796875 -10.203125 C 5.765625 -10.203125 4.988281 -9.859375 4.46875 -9.171875 C 3.945312 -8.484375 3.6875 -7.457031 3.6875 -6.09375 Z M 3.6875 -6.09375 "/></g></g></g><g fill="#000000" fill-opacity="1"><g transform="translate(237.247605, 213.856406)"><g><path d="M 11.421875 -12.15625 L 11.421875 -4.296875 C 11.421875 -3.390625 11.21875 -2.597656 10.8125 -1.921875 C 10.414062 -1.253906 9.835938 -0.738281 9.078125 -0.375 C 8.316406 -0.0078125 7.421875 0.171875 6.390625 0.171875 C 4.828125 0.171875 3.613281 -0.226562 2.75 -1.03125 C 1.882812 -1.832031 1.453125 -2.929688 1.453125 -4.328125 L 1.453125 -12.15625 L 4.015625 -12.15625 L 4.015625 -4.71875 C 4.015625 -3.78125 4.203125 -3.09375 4.578125 -2.65625 C 4.953125 -2.21875 5.578125 -2 6.453125 -2 C 7.296875 -2 7.90625 -2.21875 8.28125 -2.65625 C 8.664062 -3.09375 8.859375 -3.785156 8.859375 -4.734375 L 8.859375 -12.15625 Z M 11.421875 -12.15625 "/></g></g></g><g fill="#000000" fill-opacity="1"><g transform="translate(250.113164, 213.856406)"><g><path d="M 4.109375 -6.765625 L 4.9375 -6.765625 C 5.75 -6.765625 6.347656 -6.898438 6.734375 -7.171875 C 7.128906 -7.441406 7.328125 -7.867188 7.328125 -8.453125 C 7.328125 -9.023438 7.128906 -9.429688 6.734375 -9.671875 C 6.335938 -9.921875 5.722656 -10.046875 4.890625 -10.046875 L 4.109375 -10.046875 Z M 4.109375 -4.671875 L 4.109375 0 L 1.53125 0 L 1.53125 -12.15625 L 5.078125 -12.15625 C 6.722656 -12.15625 7.941406 -11.851562 8.734375 -11.25 C 9.523438 -10.65625 9.921875 -9.742188 9.921875 -8.515625 C 9.921875 -7.796875 9.722656 -7.15625 9.328125 -6.59375 C 8.941406 -6.039062 8.390625 -5.609375 7.671875 -5.296875 C 9.492188 -2.566406 10.6875 -0.800781 11.25 0 L 8.375 0 L 5.484375 -4.671875 Z M 4.109375 -4.671875 "/></g></g></g><g fill="#000000" fill-opacity="1"><g transform="translate(261.34975, 213.856406)"><g/></g></g><g fill="#000000" fill-opacity="1"><g transform="translate(265.771247, 213.856406)"><g><path d="M 1.53125 0 L 1.53125 -12.15625 L 4.109375 -12.15625 L 4.109375 -2.125 L 9.046875 -2.125 L 9.046875 0 Z M 1.53125 0 "/></g></g></g><g fill="#000000" fill-opacity="1"><g transform="translate(275.387172, 213.856406)"><g><path d="M 12.5625 -6.09375 C 12.5625 -4.082031 12.0625 -2.535156 11.0625 -1.453125 C 10.070312 -0.367188 8.644531 0.171875 6.78125 0.171875 C 4.914062 0.171875 3.484375 -0.367188 2.484375 -1.453125 C 1.484375 -2.535156 0.984375 -4.085938 0.984375 -6.109375 C 0.984375 -8.128906 1.484375 -9.671875 2.484375 -10.734375 C 3.484375 -11.804688 4.921875 -12.34375 6.796875 -12.34375 C 8.660156 -12.34375 10.085938 -11.804688 11.078125 -10.734375 C 12.066406 -9.660156 12.5625 -8.113281 12.5625 -6.09375 Z M 3.6875 -6.09375 C 3.6875 -4.738281 3.941406 -3.71875 4.453125 -3.03125 C 4.972656 -2.34375 5.75 -2 6.78125 -2 C 8.832031 -2 9.859375 -3.363281 9.859375 -6.09375 C 9.859375 -8.832031 8.835938 -10.203125 6.796875 -10.203125 C 5.765625 -10.203125 4.988281 -9.859375 4.46875 -9.171875 C 3.945312 -8.484375 3.6875 -7.457031 3.6875 -6.09375 Z M 3.6875 -6.09375 "/></g></g></g><g fill="#000000" fill-opacity="1"><g transform="translate(288.93424, 213.856406)"><g><path d="M 12.3125 0 L 9.046875 0 L 3.75 -9.203125 L 3.671875 -9.203125 C 3.773438 -7.578125 3.828125 -6.414062 3.828125 -5.71875 L 3.828125 0 L 1.53125 0 L 1.53125 -12.15625 L 4.78125 -12.15625 L 10.0625 -3.046875 L 10.125 -3.046875 C 10.039062 -4.628906 10 -5.75 10 -6.40625 L 10 -12.15625 L 12.3125 -12.15625 Z M 12.3125 0 "/></g></g></g><g fill="#000000" fill-opacity="1"><g transform="translate(302.772196, 213.856406)"><g><path d="M 6.140625 -6.828125 L 10.96875 -6.828125 L 10.96875 -0.53125 C 10.1875 -0.269531 9.445312 -0.0859375 8.75 0.015625 C 8.0625 0.117188 7.359375 0.171875 6.640625 0.171875 C 4.804688 0.171875 3.40625 -0.363281 2.4375 -1.4375 C 1.46875 -2.519531 0.984375 -4.070312 0.984375 -6.09375 C 0.984375 -8.0625 1.546875 -9.59375 2.671875 -10.6875 C 3.796875 -11.78125 5.351562 -12.328125 7.34375 -12.328125 C 8.59375 -12.328125 9.796875 -12.078125 10.953125 -11.578125 L 10.09375 -9.515625 C 9.207031 -9.960938 8.285156 -10.1875 7.328125 -10.1875 C 6.210938 -10.1875 5.316406 -9.8125 4.640625 -9.0625 C 3.972656 -8.3125 3.640625 -7.304688 3.640625 -6.046875 C 3.640625 -4.722656 3.910156 -3.710938 4.453125 -3.015625 C 4.992188 -2.328125 5.78125 -1.984375 6.8125 -1.984375 C 7.351562 -1.984375 7.898438 -2.035156 8.453125 -2.140625 L 8.453125 -4.6875 L 6.140625 -4.6875 Z M 6.140625 -6.828125 "/></g></g></g><g fill="#000000" fill-opacity="1"><g transform="translate(315.097535, 213.856406)"><g/></g></g><g fill="#000000" fill-opacity="1"><g transform="translate(319.519032, 213.856406)"><g><path d="M 11.421875 -12.15625 L 11.421875 -4.296875 C 11.421875 -3.390625 11.21875 -2.597656 10.8125 -1.921875 C 10.414062 -1.253906 9.835938 -0.738281 9.078125 -0.375 C 8.316406 -0.0078125 7.421875 0.171875 6.390625 0.171875 C 4.828125 0.171875 3.613281 -0.226562 2.75 -1.03125 C 1.882812 -1.832031 1.453125 -2.929688 1.453125 -4.328125 L 1.453125 -12.15625 L 4.015625 -12.15625 L 4.015625 -4.71875 C 4.015625 -3.78125 4.203125 -3.09375 4.578125 -2.65625 C 4.953125 -2.21875 5.578125 -2 6.453125 -2 C 7.296875 -2 7.90625 -2.21875 8.28125 -2.65625 C 8.664062 -3.09375 8.859375 -3.785156 8.859375 -4.734375 L 8.859375 -12.15625 Z M 11.421875 -12.15625 "/></g></g></g><g fill="#000000" fill-opacity="1"><g transform="translate(332.384591, 213.856406)"><g><path d="M 4.109375 -6.765625 L 4.9375 -6.765625 C 5.75 -6.765625 6.347656 -6.898438 6.734375 -7.171875 C 7.128906 -7.441406 7.328125 -7.867188 7.328125 -8.453125 C 7.328125 -9.023438 7.128906 -9.429688 6.734375 -9.671875 C 6.335938 -9.921875 5.722656 -10.046875 4.890625 -10.046875 L 4.109375 -10.046875 Z M 4.109375 -4.671875 L 4.109375 0 L 1.53125 0 L 1.53125 -12.15625 L 5.078125 -12.15625 C 6.722656 -12.15625 7.941406 -11.851562 8.734375 -11.25 C 9.523438 -10.65625 9.921875 -9.742188 9.921875 -8.515625 C 9.921875 -7.796875 9.722656 -7.15625 9.328125 -6.59375 C 8.941406 -6.039062 8.390625 -5.609375 7.671875 -5.296875 C 9.492188 -2.566406 10.6875 -0.800781 11.25 0 L 8.375 0 L 5.484375 -4.671875 Z M 4.109375 -4.671875 "/></g></g></g><g fill="#000000" fill-opacity="1"><g transform="translate(343.621177, 213.856406)"><g><path d="M 1.53125 0 L 1.53125 -12.15625 L 4.109375 -12.15625 L 4.109375 -2.125 L 9.046875 -2.125 L 9.046875 0 Z M 1.53125 0 "/></g></g></g></svg>