<svg width="591" height="544" viewBox="0 0 591 544" fill="none" xmlns="http://www.w3.org/2000/svg">
<g clip-path="url(#clip0_42_2)">
<path d="M32.3334 193.253C41.9854 211.147 62.4705 218.829 62.4705 218.829C62.4705 218.829 67.3065 197.498 57.6545 179.604C48.0025 161.709 27.5174 154.028 27.5174 154.028C27.5174 154.028 22.6814 175.358 32.3334 193.253Z" fill="#AB7A3F"/>
<path d="M38.9676 187.366C56.3935 197.846 63.1047 218.664 63.1047 218.664C63.1047 218.664 41.563 222.489 24.1371 212.008C6.71126 201.527 0 180.71 0 180.71C0 180.71 21.5417 176.885 38.9676 187.366Z" fill="#DFCDB7"/>
<path d="M591 484.221C591 503.086 546.147 544 490.817 544C435.488 544 390.635 503.086 390.635 484.221C390.635 465.355 435.488 475.681 490.817 475.681C546.147 475.681 591 465.355 591 484.221Z" fill="#CDCDCD"/>
<path opacity="0.1" d="M591 484.221C591 503.086 546.147 544 490.817 544C435.488 544 390.635 503.086 390.635 484.221C390.635 465.355 435.488 475.681 490.817 475.681C546.147 475.681 591 465.355 591 484.221Z" fill="black"/>
<path d="M490.817 518.38C546.147 518.38 591 503.087 591 484.221C591 465.355 546.147 450.061 490.817 450.061C435.488 450.061 390.635 465.355 390.635 484.221C390.635 503.087 435.488 518.38 490.817 518.38Z" fill="#CDCDCD"/>
<path d="M417 219H59V416H417V219Z" fill="#FFF8F1"/>
<path d="M526.153 60.3308C543.095 60.3308 556.829 47.4701 556.829 31.6056C556.829 15.7412 543.095 2.88049 526.153 2.88049C509.211 2.88049 495.477 15.7412 495.477 31.6056C495.477 47.4701 509.211 60.3308 526.153 60.3308Z" fill="#80623E"/>
<path d="M436.843 210.555L429.077 221.424C429.077 221.424 391.8 229.188 405.779 240.833C419.758 252.479 439.949 229.964 439.949 229.964L450.822 215.99L436.843 210.555Z" fill="#FFB8B8"/>
<path d="M477.227 87.115C477.227 87.115 467.131 87.115 464.801 101.089C462.471 115.064 460.141 161.645 460.141 161.645C460.141 161.645 427.524 204.345 432.96 209.779C438.396 215.214 444.609 225.306 448.492 223.754C452.375 222.201 485.769 176.396 485.769 176.396L477.227 87.115Z" fill="#C0B8AE"/>
<path d="M508.291 47.5209C508.291 47.5209 507.514 77.7987 498.195 79.3514C488.876 80.9041 491.982 90.9968 491.982 90.9968C491.982 90.9968 522.27 108.853 542.462 90.9968L546.345 81.6805C546.345 81.6805 532.366 71.5879 538.579 57.6135L508.291 47.5209Z" fill="#FFB8B8"/>
<path d="M456.258 233.846C456.258 233.846 410.438 319.245 427.524 345.641C444.609 372.037 470.237 426.382 474.12 426.382C478.003 426.382 499.748 415.513 498.195 408.526C496.642 401.539 473.344 349.523 467.131 344.865C460.918 340.207 464.024 327.785 464.801 327.009C465.578 326.232 491.206 285.086 491.206 285.086C491.206 285.086 490.429 350.299 493.535 360.392C496.642 370.485 492.759 442.686 496.642 445.791C500.525 448.896 518.387 454.331 521.493 449.673C524.6 445.015 533.919 374.366 527.706 358.063L539.355 246.268L456.258 233.846Z" fill="#555555"/>
<path d="M498.195 441.133L478.78 476.845C478.78 476.845 450.822 497.031 470.237 500.136C489.652 503.241 501.302 495.478 501.302 495.478L518.387 483.056V447.344L498.195 441.133Z" fill="#555555"/>
<path d="M471.79 420.948L481.886 445.015C481.886 445.015 485.769 455.107 481.886 457.436C478.003 459.765 467.131 473.74 474.12 475.293C475.526 475.568 476.955 475.71 478.388 475.717C484.208 475.815 489.988 474.734 495.38 472.541C500.771 470.348 505.663 467.087 509.761 462.954L516.057 456.66C516.057 456.66 494.491 407.013 494.79 407.382C495.089 407.75 471.79 420.948 471.79 420.948Z" fill="#555555"/>
<path d="M527.706 66.1534C542.289 66.1534 554.111 54.3354 554.111 39.7573C554.111 25.1791 542.289 13.3612 527.706 13.3612C513.123 13.3612 501.302 25.1791 501.302 39.7573C501.302 54.3354 513.123 66.1534 527.706 66.1534Z" fill="#FFB8B8"/>
<path d="M542.85 76.6342L534.696 84.7859C534.696 84.7859 509.844 94.1021 498.195 84.7859C498.195 84.7859 502.466 75.8578 502.466 76.6342C502.466 77.4105 468.684 82.4568 465.578 96.4312C462.471 110.406 467.907 134.473 467.907 134.473C467.907 134.473 446.162 236.952 454.705 239.281C463.248 241.61 543.238 261.019 542.462 246.268C541.685 231.517 548.675 170.961 548.675 170.961L575.856 118.946C575.856 118.946 571.973 101.866 562.654 96.4312C553.334 90.9967 542.85 76.6342 542.85 76.6342Z" fill="#C5BDB4"/>
<path d="M508.291 228.412L498.195 234.622C498.195 234.622 459.365 261.019 479.557 265.677C499.748 270.335 511.398 247.044 511.398 247.044L519.164 237.728L508.291 228.412Z" fill="#FFB8B8"/>
<path opacity="0.1" d="M565.76 114.287L572.75 121.275C572.75 121.275 577.409 186.488 568.09 199.686C558.771 212.884 516.057 248.597 513.727 246.268C511.397 243.939 496.642 232.293 499.748 230.741C502.855 229.188 544.157 186.046 544.157 186.046L540.909 125.933L565.76 114.287Z" fill="black"/>
<path d="M568.867 111.958L575.856 118.946C575.856 118.946 580.516 184.159 571.196 197.357C561.877 210.555 519.164 246.268 516.834 243.939C514.504 241.61 499.748 229.964 502.855 228.412C505.961 226.859 547.264 183.717 547.264 183.717L544.015 123.604L568.867 111.958Z" fill="#C1B8AF"/>
<path d="M516.786 2.26335C516.786 2.26335 507.81 -0.999461 495.571 5.93401L502.098 7.56542C502.098 7.56542 492.307 8.38112 491.083 21.4324H495.571C495.571 21.4324 492.715 32.8522 495.571 36.115L497.407 32.6483L502.71 43.2524L503.934 37.9503L506.382 38.7661L508.014 30.2012C508.014 30.2012 512.094 36.3189 515.358 36.7268V31.4247C515.358 31.4247 524.334 41.621 527.189 41.2132L523.11 35.5032L528.821 36.7268L526.373 32.6483L541.061 36.7268L537.797 32.6483L547.997 35.9111L552.893 37.9503C552.893 37.9503 559.828 22.0441 550.037 11.0321C540.245 0.0201512 525.966 -2.42693 516.786 2.26335Z" fill="#AB7A3F"/>
<path d="M260.24 332.895C259.588 333.306 258.913 333.688 258.215 334.04C252.542 336.892 245.969 337.378 239.938 335.392C233.906 333.405 228.909 329.108 226.043 323.443L220.877 313.202L224.345 311.455L229.511 321.695C230.697 324.049 232.335 326.146 234.332 327.867C236.329 329.588 238.646 330.898 241.149 331.724C243.653 332.549 246.295 332.873 248.924 332.678C251.553 332.482 254.118 331.771 256.472 330.584C258.826 329.397 260.923 327.758 262.643 325.761C264.363 323.764 265.673 321.447 266.497 318.944C267.322 316.44 267.645 313.799 267.448 311.171C267.25 308.543 266.537 305.979 265.349 303.627L243.653 260.622C242.466 258.269 240.828 256.174 238.831 254.454C236.834 252.735 234.518 251.426 232.014 250.601C229.511 249.777 226.87 249.453 224.242 249.649C221.614 249.845 219.05 250.557 216.697 251.743C214.344 252.929 212.247 254.567 210.528 256.564C208.808 258.56 207.498 260.875 206.673 263.378C205.849 265.88 205.525 268.52 205.721 271.148C205.917 273.775 206.629 276.338 207.815 278.69L215.497 293.916L212.029 295.664L204.348 280.438C201.49 274.768 201.001 268.195 202.99 262.165C204.978 256.135 209.281 251.142 214.952 248.283C220.623 245.424 227.198 244.934 233.23 246.92C239.263 248.906 244.259 253.206 247.121 258.874L268.816 301.879C271.495 307.19 272.101 313.308 270.516 319.042C268.931 324.775 265.268 329.714 260.24 332.895Z" fill="#AB7A3F"/>
<path d="M262.339 385.976C261.696 386.382 261.028 386.759 260.337 387.108C254.664 389.96 248.091 390.446 242.059 388.46C236.028 386.473 231.031 382.176 228.165 376.511L206.469 333.506C203.609 327.836 203.119 321.262 205.107 315.23C207.095 309.199 211.398 304.204 217.07 301.345C222.742 298.485 229.318 297.995 235.352 299.982C241.385 301.97 246.382 306.272 249.242 311.942L254.941 323.239L251.474 324.987L245.775 313.69C244.588 311.337 242.949 309.242 240.952 307.522C238.955 305.803 236.639 304.494 234.136 303.669C231.633 302.845 228.992 302.521 226.364 302.717C223.736 302.913 221.172 303.625 218.818 304.811C216.465 305.997 214.369 307.635 212.649 309.632C210.929 311.628 209.62 313.943 208.795 316.446C207.97 318.948 207.647 321.588 207.842 324.216C208.038 326.843 208.75 329.406 209.937 331.758L231.633 374.763C232.818 377.117 234.457 379.214 236.454 380.935C238.451 382.656 240.767 383.966 243.271 384.792C245.775 385.617 248.417 385.941 251.046 385.746C253.675 385.55 256.24 384.839 258.594 383.652C260.948 382.465 263.045 380.826 264.765 378.829C266.485 376.832 267.795 374.515 268.619 372.012C269.443 369.508 269.766 366.867 269.569 364.239C269.372 361.611 268.659 359.047 267.47 356.695L260.002 341.892L263.47 340.144L270.938 354.947C273.612 360.264 274.212 366.384 272.623 372.119C271.034 377.854 267.368 382.793 262.339 385.976Z" fill="#AB7A3F"/>
<path d="M417.039 417.454H58.2457V217.931H417.039V417.454ZM59.7989 415.901H415.486V219.483H59.7989V415.901Z" fill="#80623E"/>
</g>
<defs>
<clipPath id="clip0_42_2">
<rect width="591" height="544" fill="white"/>
</clipPath>
</defs>
</svg>
